<?xml version="1.0" standalone="no"?>
<!DOCTYPE svg PUBLIC "-//W3C//DTD SVG 20010904//EN"
 "http://www.w3.org/TR/2001/REC-SVG-20010904/DTD/svg10.dtd">
<svg version="1.0" xmlns="http://www.w3.org/2000/svg"
 width="478.000000pt" height="186.000000pt" viewBox="0 0 478.000000 186.000000"
 preserveAspectRatio="xMidYMid meet">

<g transform="translate(0.000000,186.000000) scale(0.100000,-0.100000)"
fill="#000000" stroke="none">
<path d="M393 1206 c-26 -23 -28 -29 -31 -120 -4 -95 -4 -96 26 -126 l30 -30
245 0 c232 0 246 1 271 21 21 17 26 29 26 65 0 37 -3 44 -20 44 -16 0 -20 -7
-20 -33 0 -18 -5 -38 -12 -45 -17 -17 -469 -17 -486 0 -16 16 -16 180 0 196
17 17 471 17 486 0 6 -7 12 -26 14 -43 2 -19 9 -31 21 -33 29 -6 23 72 -8 103
l-24 25 -245 0 c-244 0 -245 0 -273 -24z"/>
<path d="M1025 1205 c-23 -22 -25 -31 -25 -125 0 -94 2 -103 25 -125 l24 -25
248 0 c179 1 252 4 264 13 30 23 39 56 39 142 0 82 -1 88 -29 116 l-29 29
-247 0 -246 0 -24 -25z m521 -40 c21 -32 17 -171 -6 -185 -23 -15 -473 -13
-488 2 -8 8 -12 45 -12 100 0 72 3 89 18 97 10 6 109 11 244 11 l228 0 16 -25z"/>
<path d="M1630 1080 l0 -150 275 0 276 0 24 25 c33 32 36 95 5 95 -15 0 -20
-7 -20 -29 0 -16 -6 -34 -14 -40 -9 -8 -86 -11 -257 -9 l-244 3 -3 128 c-2
119 -4 127 -22 127 -19 0 -20 -7 -20 -150z"/>
<path d="M2295 1206 c-28 -28 -40 -94 -32 -175 5 -44 12 -61 32 -78 26 -23 31
-23 270 -23 243 0 244 0 272 24 27 24 28 27 28 126 0 99 -1 102 -28 126 -28
24 -29 24 -273 24 -244 0 -245 0 -269 -24z m513 -28 c16 -16 16 -180 0 -196
-17 -17 -469 -17 -486 0 -7 7 -12 44 -12 98 0 54 5 91 12 98 17 17 469 17 486
0z"/>
<path d="M2900 1080 c0 -143 1 -150 20 -150 18 0 20 7 20 65 l0 65 218 0 218
0 37 -65 c26 -45 43 -65 57 -65 26 0 25 6 -10 65 -35 59 -36 65 -12 65 33 0
52 33 52 87 0 85 7 83 -318 83 l-282 0 0 -150z m555 65 l0 -40 -255 0 -255 0
-3 28 c-7 59 -15 58 260 55 l253 -3 0 -40z"/>
<path d="M3546 1208 c-20 -28 -21 -98 -2 -124 13 -18 32 -19 283 -24 l268 -5
0 -40 0 -40 -277 -3 c-270 -2 -278 -3 -278 -22 0 -19 7 -20 283 -20 326 0 317
-3 317 87 0 84 5 83 -298 83 l-262 0 -6 24 c-3 14 -3 34 1 45 6 21 12 21 281
21 267 0 274 0 274 20 0 20 -7 20 -284 20 -283 0 -285 0 -300 -22z"/>
<path d="M360 800 c0 -20 7 -20 1890 -20 1883 0 1890 0 1890 20 0 20 -7 20
-1890 20 -1883 0 -1890 0 -1890 -20z"/>
<path d="M367 664 c-4 -4 -7 -72 -7 -151 0 -135 1 -143 19 -143 11 0 77 27
147 60 70 33 132 60 139 60 7 0 69 -27 138 -60 69 -33 132 -60 141 -60 14 0
16 19 16 150 0 143 -1 150 -20 150 -19 0 -20 -7 -20 -125 l0 -125 -57 26 c-32
15 -90 40 -129 56 l-71 31 -126 -56 -126 -55 -3 121 c-3 101 -6 122 -18 125
-9 1 -19 0 -23 -4z"/>
<path d="M1045 659 c-40 -22 -45 -40 -45 -144 0 -153 -15 -145 298 -145 238 0
253 1 272 20 27 27 33 57 28 150 -3 67 -7 83 -26 102 -22 23 -28 23 -265 25
-164 2 -248 -1 -262 -8z m490 -43 c15 -11 20 -29 23 -82 2 -38 -1 -81 -7 -96
l-11 -28 -238 0 c-172 0 -241 3 -250 12 -19 19 -16 173 4 192 13 14 49 16 238
16 174 0 226 -3 241 -14z"/>
<path d="M1910 540 l0 -130 -140 0 c-133 0 -140 -1 -140 -20 0 -20 7 -20 300
-20 293 0 300 0 300 20 0 19 -7 20 -140 20 l-140 0 0 130 c0 123 -1 130 -20
130 -19 0 -20 -7 -20 -130z"/>
<path d="M2287 652 c-12 -13 -17 -37 -17 -75 0 -88 -3 -87 302 -87 l258 0 0
-40 0 -40 -275 0 c-268 0 -275 0 -275 -20 0 -20 7 -20 284 -20 232 0 286 3
295 14 7 8 11 38 9 72 -4 84 -2 84 -306 84 l-253 0 3 43 3 42 273 3 c264 2
272 3 272 22 0 19 -7 20 -278 20 -258 0 -280 -1 -295 -18z"/>
<path d="M2945 648 c-33 -29 -44 -79 -45 -190 0 -87 0 -88 25 -88 l25 0 0 113
c0 98 3 116 18 130 16 15 48 17 239 17 270 0 253 10 253 -148 l0 -112 25 0
c25 0 25 0 25 93 0 111 -12 159 -47 187 -24 19 -39 20 -259 20 -227 0 -234 -1
-259 -22z"/>
<path d="M3571 644 c-25 -21 -31 -33 -31 -65 0 -32 3 -39 20 -39 15 0 20 7 20
29 0 56 20 61 262 61 263 0 258 2 258 -111 0 -116 17 -109 -258 -109 -256 0
-262 1 -262 52 0 21 -5 28 -20 28 -31 0 -28 -63 5 -95 l24 -25 251 0 251 0 24
25 c23 22 25 31 25 120 0 93 -1 98 -29 126 l-29 29 -240 0 -240 0 -31 -26z"/>
</g>
</svg>
